# xmcd
#
# Track frame offsets:
#	150
#	20648
#	34401
#	55450
#	76254
#	89296
#	107432
#	123379
#	141695
#	161204
#	180983
#	199677
#	221017
#
# Disc length: 3231 seconds
#
# Revision: 0
# Processed by: cddbd v1.5.1PL0 Copyright (c) Steve Scherf et al.
# Submitted via: dBpowerAMP V4.0
#
DISCID=ba0c9d0d
DTITLE=Garth Brooks - Scarecrow
DYEAR=1900
DGENRE=Country
TTITLE0=Why Ain't I Running
TTITLE1=Beer Run
TTITLE2=Wrapped Up In You
TTITLE3=The Storm
TTITLE4=Thicker Than Blood
TTITLE5=Big Money
TTITLE6=Squeeze me in
TTITLE7=Mr. Midnight
TTITLE8=Pushing Up Daises
TTITLE9=Rodeo Or Mexico
TTITLE10=Don't Cross The River
TTITLE11=When You Come Back To Me Again
TTITLE12=Wrapped Up In You (Long)
EXTD=
EXTT0=
EXTT1=
EXTT2=
EXTT3=
EXTT4=
EXTT5=
EXTT6=
EXTT7=
EXTT8=
EXTT9=
EXTT10=
EXTT11=
EXTT12=
PLAYORDER=
